{
	"meshes":[{
		"name":"Cube",
		"primitives":[{
			"attributes":{
				"POSITION":1,
				"NORMAL":2,
				"TEXCOORD_0":3
			},
			"indices":0
		}]
	}],
	"nodes":[{
		"mesh":0,
		"name":"Cube",
		"translation":[0.0,
		0.0,
		0.0],
		"rotation":[0.0,
		0.0,
		0.0,
		-1.0],
		"scale":[1.0,
		1.0,
		1.0]
	}],
	"asset":{
		"version":"2.0",
		"generator":"Created using the official Cinema 4D glTF Exporter 1.000x284978"
	},
	"scenes":[{
		"nodes":[0]
	}],
	"accessors":[{
		"bufferView":0,
		"type":"SCALAR",
		"componentType":5123,
		"count":84,
		"byteOffset":0,
		"min":[0],
		"max":[47]
	},
	{
		"bufferView":1,
		"type":"VEC3",
		"componentType":5126,
		"count":48,
		"byteOffset":0,
		"min":[-38.84461212158203,
		-170.0234832763672,
		-45.945091247558597],
		"max":[38.84461212158203,
		64.41844177246094,
		45.945091247558597]
	},
	{
		"bufferView":1,
		"type":"VEC3",
		"componentType":5126,
		"count":48,
		"byteOffset":12,
		"min":[-0.9998664259910584,
		-1.0,
		-0.9994286298751831],
		"max":[0.9998664259910584,
		1.0,
		0.9994286298751831]
	},
	{
		"bufferView":1,
		"type":"VEC2",
		"componentType":5126,
		"count":48,
		"byteOffset":24,
		"min":[0.0,
		0.0],
		"max":[1.0,
		1.0]
	}],
	"bufferViews":[{
		"buffer":0,
		"byteOffset":0,
		"byteLength":168,
		"target":34963
	},
	{
		"buffer":0,
		"byteOffset":168,
		"byteLength":1536,
		"target":34962,
		"byteStride":32
	}],
	"buffers":[{
		"uri":"data:application/octet-stream;base64,",
		"byteLength":1704
	}]
}