{
	"asset":{
		"version":"2.0",
		"generator":"Created using the official Cinema 4D glTF Exporter 1.000x284978"
	},
	"scenes":[{
		"nodes":[0]
	}],
	"nodes":[{
		"name":"Extrude",
		"translation":[0.0,
		0.0,
		-7.368309020996094],
		"rotation":[0.0,
		0.0,
		0.0,
		-1.0],
		"scale":[1.0,
		1.0,
		1.0],
		"children":[1]
	},
	{
		"name":"Extrude",
		"translation":[0.0,
		0.0,
		0.0],
		"rotation":[0.0,
		0.0,
		0.0,
		-1.0],
		"scale":[1.0,
		1.0,
		1.0],
		"mesh":0
	}],
	"materials":[{
		"pbrMetallicRoughness":{
			"baseColorFactor":[0.8200000000000001,
			0.5923133333333334,
			0.4182,
			1.0],
			"metallicFactor":0.0,
			"roughnessFactor":0.5
		},
		"emissiveFactor":[0.0,
		0.0,
		0.0],
		"alphaMode":"OPAQUE",
		"doubleSided":true,
		"name":"Mat"
	}],
	"meshes":[{
		"name":"Extrude",
		"primitives":[{
			"attributes":{
				"POSITION":1,
				"NORMAL":2,
				"TEXCOORD_0":3
			},
			"indices":0,
			"material":0
		}]
	}],
	"accessors":[{
		"bufferView":0,
		"type":"SCALAR",
		"componentType":5123,
		"count":3096,
		"byteOffset":0,
		"min":[0],
		"max":[945]
	},
	{
		"bufferView":1,
		"type":"VEC3",
		"componentType":5126,
		"count":946,
		"byteOffset":0,
		"min":[-561.5921020507813,
		-160.7517852783203,
		-33.95000076293945],
		"max":[727.9345092773438,
		235.96473693847657,
		7.949999809265137]
	},
	{
		"bufferView":1,
		"type":"VEC3",
		"componentType":5126,
		"count":946,
		"byteOffset":12,
		"min":[-0.9670713543891907,
		-0.9949295520782471,
		-1.0],
		"max":[0.9303115606307983,
		0.994924783706665,
		1.0]
	},
	{
		"bufferView":1,
		"type":"VEC2",
		"componentType":5126,
		"count":946,
		"byteOffset":24,
		"min":[0.0,
		0.0],
		"max":[1.0,
		1.0]
	}],
	"bufferViews":[{
		"buffer":0,
		"byteOffset":0,
		"byteLength":6192,
		"target":34963
	},
	{
		"buffer":0,
		"byteOffset":6192,
		"byteLength":30272,
		"target":34962,
		"byteStride":32
	}],
	"buffers":[{
		"uri":"data:application/octet-stream;base64,",
		"byteLength":36464
	}]
}