{
	"asset":{
		"version":"2.0",
		"generator":"Created using the official Cinema 4D glTF Exporter 1.000x284978"
	},
	"scenes":[{
		"nodes":[0,
		5]
	}],
	"nodes":[{
		"name":"Null",
		"translation":[-76.95956420898438,
		-617.8812866210938,
		-14.165410995483399],
		"rotation":[0.0,
		-0.16205111145973206,
		0.0,
		0.9867823719978333],
		"scale":[1.0,
		1.0,
		1.0],
		"children":[1,
		3]
	},
	{
		"name":"Extrude",
		"translation":[0.0,
		0.0,
		-5.136458873748779],
		"rotation":[0.0,
		0.0,
		0.0,
		-1.0],
		"scale":[1.0,
		1.0,
		1.0],
		"children":[2]
	},
	{
		"name":"Extrude",
		"mesh":0
	},
	{
		"name":"Loft",
		"translation":[0.0,
		0.0,
		5.136458873748779],
		"rotation":[0.0,
		0.0,
		0.0,
		-1.0],
		"scale":[1.0,
		1.0,
		1.0],
		"children":[4]
	},
	{
		"name":"Loft",
		"mesh":1
	},
	{
		"name":"Cube.1",
		"translation":[0.0,
		0.0,
		0.0],
		"rotation":[0.0,
		0.0,
		0.0,
		-1.0],
		"scale":[1.0,
		1.0,
		1.0],
		"children":[6,
		7]
	},
	{
		"name":"Cube.1-Mat",
		"translation":[0.0,
		0.0,
		0.0],
		"rotation":[0.0,
		0.0,
		0.0,
		-1.0],
		"scale":[1.0,
		1.0,
		1.0],
		"mesh":2
	},
	{
		"name":"Cube.1-Mat.2",
		"translation":[0.0,
		0.0,
		0.0],
		"rotation":[0.0,
		0.0,
		0.0,
		-1.0],
		"scale":[1.0,
		1.0,
		1.0],
		"mesh":3
	}],
	"materials":[{
		"pbrMetallicRoughness":{
			"baseColorFactor":[0.1456,
			0.1894533333333334,
			0.26,
			1.0],
			"metallicFactor":0.0,
			"roughnessFactor":0.5
		},
		"emissiveFactor":[0.0,
		0.0,
		0.0],
		"alphaMode":"OPAQUE",
		"doubleSided":true,
		"name":"Mat.1"
	},
	{
		"pbrMetallicRoughness":{
			"baseColorFactor":[0.6,
			0.4776,
			0.384,
			1.0],
			"metallicFactor":0.0,
			"roughnessFactor":0.5
		},
		"emissiveFactor":[0.0,
		0.0,
		0.0],
		"alphaMode":"OPAQUE",
		"doubleSided":true,
		"name":"Mat"
	},
	{
		"pbrMetallicRoughness":{
			"baseColorFactor":[0.37152,
			0.43,
			0.28379999999999996,
			1.0],
			"metallicFactor":0.0,
			"roughnessFactor":0.5
		},
		"emissiveFactor":[0.0,
		0.0,
		0.0],
		"alphaMode":"OPAQUE",
		"doubleSided":true,
		"name":"Mat.2"
	}],
	"meshes":[{
		"name":"Extrude",
		"primitives":[{
			"attributes":{
				"POSITION":1,
				"NORMAL":2,
				"TEXCOORD_0":3
			},
			"indices":0,
			"material":0
		}]
	},
	{
		"name":"Loft",
		"primitives":[{
			"attributes":{
				"POSITION":5,
				"NORMAL":6,
				"TEXCOORD_0":7
			},
			"indices":4,
			"material":1
		}]
	},
	{
		"name":"Cube.1-Mat",
		"primitives":[{
			"attributes":{
				"POSITION":9,
				"NORMAL":10,
				"TEXCOORD_0":11
			},
			"indices":8,
			"material":1
		}]
	},
	{
		"name":"Cube.1-Mat.2",
		"primitives":[{
			"attributes":{
				"POSITION":13,
				"NORMAL":14,
				"TEXCOORD_0":15
			},
			"indices":12,
			"material":2
		}]
	}],
	"accessors":[{
		"bufferView":0,
		"type":"SCALAR",
		"componentType":5123,
		"count":180,
		"byteOffset":0,
		"min":[0],
		"max":[87]
	},
	{
		"bufferView":1,
		"type":"VEC3",
		"componentType":5126,
		"count":88,
		"byteOffset":0,
		"min":[-47.86003112792969,
		-13.455968856811524,
		-117.39391326904297],
		"max":[47.86003112792969,
		0.8014526963233948,
		29.593162536621095]
	},
	{
		"bufferView":1,
		"type":"VEC3",
		"componentType":5126,
		"count":88,
		"byteOffset":12,
		"min":[-1.0,
		-1.0,
		-1.0],
		"max":[1.0,
		1.0,
		1.0]
	},
	{
		"bufferView":1,
		"type":"VEC2",
		"componentType":5126,
		"count":88,
		"byteOffset":24,
		"min":[0.0,
		0.0],
		"max":[1.0,
		1.0]
	},
	{
		"bufferView":2,
		"type":"SCALAR",
		"componentType":5123,
		"count":5664,
		"byteOffset":0,
		"min":[0],
		"max":[1336]
	},
	{
		"bufferView":3,
		"type":"VEC3",
		"componentType":5126,
		"count":1337,
		"byteOffset":0,
		"min":[-35.674190521240237,
		-3.7352187633514406,
		-104.05603790283203],
		"max":[35.65763854980469,
		49.88078308105469,
		0.5440826416015625]
	},
	{
		"bufferView":3,
		"type":"VEC3",
		"componentType":5126,
		"count":1337,
		"byteOffset":12,
		"min":[-1.0,
		-1.0,
		-0.9999748468399048],
		"max":[0.9997358918190002,
		1.0,
		0.9999736547470093]
	},
	{
		"bufferView":3,
		"type":"VEC2",
		"componentType":5126,
		"count":1337,
		"byteOffset":24,
		"min":[0.0,
		0.0],
		"max":[1.0,
		1.0]
	},
	{
		"bufferView":4,
		"type":"SCALAR",
		"componentType":5123,
		"count":678,
		"byteOffset":0,
		"min":[0],
		"max":[203]
	},
	{
		"bufferView":5,
		"type":"VEC3",
		"componentType":5126,
		"count":204,
		"byteOffset":0,
		"min":[-119.09452819824219,
		-666.8717041015625,
		-1377.0330810546876],
		"max":[14.893811225891114,
		666.8717041015625,
		1377.0330810546876]
	},
	{
		"bufferView":5,
		"type":"VEC3",
		"componentType":5126,
		"count":204,
		"byteOffset":12,
		"min":[-1.0,
		-1.0,
		-1.0],
		"max":[0.9830625653266907,
		1.0,
		1.0]
	},
	{
		"bufferView":5,
		"type":"VEC2",
		"componentType":5126,
		"count":204,
		"byteOffset":24,
		"min":[0.0,
		0.0],
		"max":[1.0,
		1.0]
	},
	{
		"bufferView":6,
		"type":"SCALAR",
		"componentType":5123,
		"count":6,
		"byteOffset":0,
		"min":[0],
		"max":[3]
	},
	{
		"bufferView":7,
		"type":"VEC3",
		"componentType":5126,
		"count":4,
		"byteOffset":0,
		"min":[10.44731330871582,
		-631.5274658203125,
		-1341.6888427734376],
		"max":[10.44731330871582,
		631.5274658203125,
		1341.6888427734376]
	},
	{
		"bufferView":7,
		"type":"VEC3",
		"componentType":5126,
		"count":4,
		"byteOffset":12,
		"min":[-1.0,
		0.0,
		0.0],
		"max":[-1.0,
		0.0,
		0.0]
	},
	{
		"bufferView":7,
		"type":"VEC2",
		"componentType":5126,
		"count":4,
		"byteOffset":24,
		"min":[0.011628799140453339,
		0.027847513556480409],
		"max":[0.9864683151245117,
		0.9721524715423584]
	}],
	"bufferViews":[{
		"buffer":0,
		"byteOffset":0,
		"byteLength":360,
		"target":34963
	},
	{
		"buffer":0,
		"byteOffset":360,
		"byteLength":2816,
		"target":34962,
		"byteStride":32
	},
	{
		"buffer":1,
		"byteOffset":0,
		"byteLength":11328,
		"target":34963
	},
	{
		"buffer":1,
		"byteOffset":11328,
		"byteLength":42784,
		"target":34962,
		"byteStride":32
	},
	{
		"buffer":2,
		"byteOffset":0,
		"byteLength":1356,
		"target":34963
	},
	{
		"buffer":2,
		"byteOffset":1356,
		"byteLength":6528,
		"target":34962,
		"byteStride":32
	},
	{
		"buffer":3,
		"byteOffset":0,
		"byteLength":12,
		"target":34963
	},
	{
		"buffer":3,
		"byteOffset":12,
		"byteLength":128,
		"target":34962,
		"byteStride":32
	}],
	"buffers":[{
		"uri":"data:application/octet-stream;base64,",
		"byteLength":3176
	},
	{
		"uri":"data:application/octet-stream;base64,",
		"byteLength":54112
	},
	{
		"uri":"data:application/octet-stream;base64,",
		"byteLength":7884
	},
	{
		"uri":"data:application/octet-stream;base64,",
		"byteLength":140
	}]
}